<?xml version="1.0" encoding="UTF-8" standalone="no"?>
<!-- Created with Inkscape (http://www.inkscape.org/) -->

<svg
   xmlns:dc="http://purl.org/dc/elements/1.1/"
   xmlns:cc="http://creativecommons.org/ns#"
   xmlns:rdf="http://www.w3.org/1999/02/22-rdf-syntax-ns#"
   xmlns:svg="http://www.w3.org/2000/svg"
   xmlns="http://www.w3.org/2000/svg"
   xmlns:sodipodi="http://sodipodi.sourceforge.net/DTD/sodipodi-0.dtd"
   xmlns:inkscape="http://www.inkscape.org/namespaces/inkscape"
   width="520"
   height="360"
   id="svg2"
   version="1.1"
   inkscape:version="0.48.3.1 r9886"
   sodipodi:docname="New document 1">
  <defs
     id="defs4" />
  <sodipodi:namedview
     id="base"
     pagecolor="#ffffff"
     bordercolor="#666666"
     borderopacity="1.0"
     inkscape:pageopacity="0.0"
     inkscape:pageshadow="2"
     inkscape:zoom="0.7"
     inkscape:cx="61.428571"
     inkscape:cy="-160"
     inkscape:document-units="px"
     inkscape:current-layer="layer1"
     showgrid="true"
     fit-margin-top="0"
     fit-margin-left="0"
     fit-margin-right="0"
     fit-margin-bottom="0"
     inkscape:window-width="1920"
     inkscape:window-height="1031"
     inkscape:window-x="0"
     inkscape:window-y="145"
     inkscape:window-maximized="1">
    <inkscape:grid
       type="xygrid"
       id="grid2985"
       empspacing="5"
       visible="true"
       enabled="true"
       snapvisiblegridlinesonly="true"
       originx="-60px"
       originy="-680px" />
  </sodipodi:namedview>
  <metadata
     id="metadata7">
    <rdf:RDF>
      <cc:Work
         rdf:about="">
        <dc:format>image/svg+xml</dc:format>
        <dc:type
           rdf:resource="http://purl.org/dc/dcmitype/StillImage" />
        <dc:title></dc:title>
      </cc:Work>
    </rdf:RDF>
  </metadata>
  <g
     inkscape:label="Layer 1"
     inkscape:groupmode="layer"
     id="layer1"
     transform="translate(-60,-12.362183)">
    <rect
       style="fill:#0000ff;fill-rule:evenodd;stroke:none"
       id="rect2987"
       width="520"
       height="360"
       x="60"
       y="12.362183" />
    <rect
       style="fill:#ff0000;fill-opacity:1;stroke:none"
       id="rect3757"
       width="160"
       height="120"
       x="60"
       y="12.362183" />
    <rect
       style="fill:#ff0000;fill-opacity:1;stroke:none"
       id="rect3759"
       width="160"
       height="120"
       x="420"
       y="12.362183" />
    <rect
       style="fill:#ff0000;fill-opacity:1;stroke:none"
       id="rect3761"
       width="160"
       height="120"
       x="420"
       y="252.36218" />
    <rect
       style="fill:#ff0000;fill-opacity:1;stroke:none"
       id="rect3763"
       width="160"
       height="120"
       x="60"
       y="252.36218" />
    <rect
       style="fill:none;stroke:#000000;stroke-width:4;stroke-miterlimit:4;stroke-opacity:1;stroke-dasharray:none"
       id="rect3765"
       width="320"
       height="240"
       x="160"
       y="72.362183"
       ry="60" />
    <path
       sodipodi:type="arc"
       style="fill:none;stroke:#000000;stroke-width:2.5;stroke-miterlimit:4;stroke-opacity:1;stroke-dasharray:5, 2.5;stroke-dashoffset:0"
       id="path3769"
       sodipodi:cx="210"
       sodipodi:cy="122.36218"
       sodipodi:rx="50"
       sodipodi:ry="50"
       d="m 260,122.36218 c 0,27.61424 -22.38576,50 -50,50 -27.61424,0 -50,-22.38576 -50,-50 0,-27.614235 22.38576,-49.999997 50,-49.999997 27.61424,0 50,22.385762 50,49.999997 z"
       transform="matrix(1.2,0,0,1.2,-32,105.52756)" />
    <path
       sodipodi:type="arc"
       style="fill:none;stroke:#000000;stroke-width:2.5;stroke-miterlimit:4;stroke-opacity:1;stroke-dasharray:5, 2.5;stroke-dashoffset:0"
       id="path3769-2"
       sodipodi:cx="210"
       sodipodi:cy="122.36218"
       sodipodi:rx="50"
       sodipodi:ry="50"
       d="m 260,122.36218 c 0,27.61424 -22.38576,50 -50,50 -27.61424,0 -50,-22.38576 -50,-50 0,-27.614235 22.38576,-49.999997 50,-49.999997 27.61424,0 50,22.385762 50,49.999997 z"
       transform="matrix(1.2,0,0,1.2,-32,-14.472437)" />
    <path
       sodipodi:type="arc"
       style="fill:none;stroke:#000000;stroke-width:2.5;stroke-miterlimit:4;stroke-opacity:1;stroke-dasharray:5, 2.5;stroke-dashoffset:0"
       id="path3769-0"
       sodipodi:cx="210"
       sodipodi:cy="122.36218"
       sodipodi:rx="50"
       sodipodi:ry="50"
       d="m 260,122.36218 c 0,27.61424 -22.38576,50 -50,50 -27.61424,0 -50,-22.38576 -50,-50 0,-27.614235 22.38576,-49.999997 50,-49.999997 27.61424,0 50,22.385762 50,49.999997 z"
       transform="matrix(1.2,0,0,1.2,168,-14.472437)" />
    <path
       sodipodi:type="arc"
       style="fill:none;stroke:#000000;stroke-width:2.5;stroke-miterlimit:4;stroke-opacity:1;stroke-dasharray:5, 2.5;stroke-dashoffset:0"
       id="path3769-5"
       sodipodi:cx="210"
       sodipodi:cy="122.36218"
       sodipodi:rx="50"
       sodipodi:ry="50"
       d="m 260,122.36218 c 0,27.61424 -22.38576,50 -50,50 -27.61424,0 -50,-22.38576 -50,-50 0,-27.614235 22.38576,-49.999997 50,-49.999997 27.61424,0 50,22.385762 50,49.999997 z"
       transform="matrix(1.2,0,0,1.2,168,105.52756)" />
  </g>
</svg>
